<svg width="181" height="181" viewBox="0 0 181 181" fill="none" xmlns="http://www.w3.org/2000/svg">
<circle cx="90.5" cy="90.5" r="90" fill="white" stroke="#FF5046"/>
<path d="M82.3647 114.496L130 114.84M82.3647 114.496V117.246M82.3647 114.496V109.911M130 114.84V126.645L129.544 128.479L128.632 129.854L126.581 131H116.325H96.2678H85.7835L83.9601 129.854L82.8205 128.479L82.3647 126.186V117.246M130 114.84V103.034V61.3152M82.3647 61.3152V54.2092L82.8205 53.7507L83.7322 51.9169L86.4672 51H107.436H126.353L128.177 51.9169L130 53.7507V56.043V61.3152M82.3647 61.3152H130M82.3647 61.3152V64.0659M91.5954 80.2264L92.6211 80.5702H120.199M91.5954 80.2264L90.5698 79.8825L89.886 78.5072L90.5698 75.298L92.6211 72.5473L95.812 69.5673L99.9145 68.192H111.766L116.097 69.5673L118.832 71.4011L121.111 73.9226L122.023 76.6734V78.5072L121.111 80.5702H120.199M91.5954 80.2264V86.3009M91.5954 86.3009H96.4957L99.9145 89.51L103.789 86.3009H119.516H120.199M91.5954 86.3009L90.5698 88.3639L89.886 91.5731L90.5698 93.6361L92.0513 93.063M120.199 86.3009V80.5702M120.199 86.3009L122.023 89.51L122.707 93.6361L120.199 92.8945M92.0513 93.063L93.5328 92.49H96.4957L99.0029 94.553H101.282L105.157 92.49H108.348L111.766 94.553L116.097 92.49H118.832L120.199 92.8945M92.0513 93.063V99.8252M92.0513 99.8252H106.752L110.171 102.347L114.274 99.8252H120.199M92.0513 99.8252L90.5698 101.201V103.034L91.5954 105.556L93.5328 106.702H118.832L121.111 105.556L122.023 103.034V101.201L120.199 99.8252M120.199 99.8252V92.8945M82.3647 64.0659H64.5869L60.0285 65.8997L54.7863 69.5673L52.0513 73.9226L50.9117 76.6734L52.0513 79.8825L53.4188 80.5702M82.3647 64.0659V81.2579M82.3647 81.2579V81.9456V99.8252M82.3647 81.2579H54.7863L53.4188 80.5702M53.4188 80.5702V89.51M53.4188 89.51H59.5726L65.4986 93.6361L70.2849 89.9685L82.1368 90.1977L82.3647 99.8252M53.4188 89.51L52.0513 91.1146L50.6838 94.7822L50 97.0745L50.6838 99.8252L52.735 99.3668L53.6801 98.9443M82.3647 99.8252H79.4017L75.9829 97.9914L71.6524 97.533L69.8291 98.4499L67.3219 99.3668H63.4473L59.5726 97.533H56.8376L53.6801 98.9443M82.3647 99.8252V109.911M53.6801 98.9443V107.848M53.6801 107.848L52.0513 108.765L51.3675 110.37V112.203L51.8234 114.266L52.735 115.871L54.7863 117.246H55.698H82.3647M53.6801 107.848H73.9316L74.8433 108.307L77.1225 109.911L79.4017 111.516L80.0855 110.828L82.3647 109.911M106.296 127.103L108.348 126.645L109.943 125.269L110.171 123.665V121.831L109.487 120.685L108.348 119.539L106.752 119.08H105.157L103.789 119.539L102.877 120.456L102.422 121.602V123.206L102.65 124.811L103.789 126.186L105.613 127.103H106.296Z" stroke="#FF5046" stroke-width="3"/>
</svg>
