<svg width="84" height="84" viewBox="0 0 84 84" fill="none" xmlns="http://www.w3.org/2000/svg">
<path d="M34.3647 65.4957L82 65.8395M34.3647 65.4957V68.2464M34.3647 65.4957V60.9112M82 65.8395V77.6447L81.5442 79.4785L80.6325 80.8539L78.5812 82H68.3248H48.2678H37.7835L35.9601 80.8539L34.8205 79.4785L34.3647 77.1862V68.2464M82 65.8395V54.0344V12.3152M34.3647 12.3152V5.20917L34.8205 4.75072L35.7322 2.91691L38.4672 2H59.4359H78.3533L80.1766 2.91691L82 4.75072V7.04298V12.3152M34.3647 12.3152H82M34.3647 12.3152V15.0659M43.5954 31.2264L44.6211 31.5702H72.1994M43.5954 31.2264L42.5698 30.8825L41.886 29.5072L42.5698 26.298L44.6211 23.5473L47.812 20.5673L51.9145 19.192H63.7664L68.0969 20.5673L70.8319 22.4011L73.1111 24.9226L74.0228 27.6734V29.5072L73.1111 31.5702H72.1994M43.5954 31.2264V37.3009M43.5954 37.3009H48.4957L51.9145 40.51L55.7892 37.3009H71.5157H72.1994M43.5954 37.3009L42.5698 39.3639L41.886 42.5731L42.5698 44.6361L44.0513 44.063M72.1994 37.3009V31.5702M72.1994 37.3009L74.0228 40.51L74.7066 44.6361L72.1994 43.8945M44.0513 44.063L45.5328 43.49H48.4957L51.0028 45.553H53.2821L57.1567 43.49H60.3476L63.7664 45.553L68.0969 43.49H70.8319L72.1994 43.8945M44.0513 44.063V50.8252M44.0513 50.8252H58.7521L62.1709 53.3467L66.2735 50.8252H72.1994M44.0513 50.8252L42.5698 52.2006V54.0344L43.5954 56.5559L45.5328 57.702H70.8319L73.1111 56.5559L74.0228 54.0344V52.2006L72.1994 50.8252M72.1994 50.8252V43.8945M34.3647 15.0659H16.5869L12.0285 16.8997L6.78632 20.5673L4.05128 24.9226L2.91168 27.6734L4.05128 30.8825L5.4188 31.5702M34.3647 15.0659V32.2579M34.3647 32.2579V32.9456V50.8252M34.3647 32.2579H6.78632L5.4188 31.5702M5.4188 31.5702V40.51M5.4188 40.51H11.5726L17.4986 44.6361L22.2849 40.9685L34.1368 41.1977L34.3647 50.8252M5.4188 40.51L4.05128 42.1146L2.68376 45.7822L2 48.0745L2.68376 50.8252L4.73504 50.3668L5.68011 49.9443M34.3647 50.8252H31.4017L27.9829 48.9914L23.6524 48.533L21.8291 49.4499L19.3219 50.3668H15.4473L11.5726 48.533H8.83761L5.68011 49.9443M34.3647 50.8252V60.9112M5.68011 49.9443V58.8481M5.68011 58.8481L4.05128 59.765L3.36752 61.3696V63.2034L3.82336 65.2665L4.73504 66.8711L6.78632 68.2464H7.69801H34.3647M5.68011 58.8481H25.9316L26.8433 59.3066L29.1225 60.9112L31.4017 62.5158L32.0855 61.8281L34.3647 60.9112M58.2963 78.1032L60.3476 77.6447L61.943 76.2693L62.1709 74.6648V72.8309L61.4872 71.6848L60.3476 70.5387L58.7521 70.0802H57.1567L55.7892 70.5387L54.8775 71.4556L54.4217 72.6017V74.2063L54.6496 75.8109L55.7892 77.1862L57.6125 78.1032H58.2963Z" stroke="#FF5046" stroke-width="3"/>
</svg>
